<svg width="522" height="379" viewBox="0 0 522 379" fill="none" xmlns="http://www.w3.org/2000/svg">
<g filter="url(#filter0_d_535_1411)">
<path d="M332.799 367.572C292.837 376.953 282.253 324.522 243.552 324.887C192.917 325.366 137.052 379.012 90.4756 369.861C43.2029 360.572 19.2422 319.317 9.50809 278.9C-1.02004 235.187 2.79527 183.319 34.4656 137.303C65.7635 91.8274 121.698 57.7236 177.06 35.4498C226.117 15.7133 273.412 26.3509 323.186 21.1432C371.305 16.1086 426.52 -10.6794 464.782 5.34619C503.11 21.3993 517.054 62.7365 517.211 102.409C517.35 137.497 485.979 172.59 465.584 208.004C450 235.063 432.854 260.123 411.831 285.387C387.467 314.666 370.92 358.624 332.799 367.572Z" fill="#484C9A"/>
</g>
<defs>
<filter id="filter0_d_535_1411" x="0.25" y="0.295776" width="520.961" height="378.615" filterUnits="userSpaceOnUse" color-interpolation-filters="sRGB">
<feFlood flood-opacity="0" result="BackgroundImageFix"/>
<feColorMatrix in="SourceAlpha" type="matrix" values="0 0 0 0 0 0 0 0 0 0 0 0 0 0 0 0 0 0 127 0" result="hardAlpha"/>
<feOffset dy="4"/>
<feGaussianBlur stdDeviation="2"/>
<feComposite in2="hardAlpha" operator="out"/>
<feColorMatrix type="matrix" values="0 0 0 0 0 0 0 0 0 0 0 0 0 0 0 0 0 0 0.25 0"/>
<feBlend mode="normal" in2="BackgroundImageFix" result="effect1_dropShadow_535_1411"/>
<feBlend mode="normal" in="SourceGraphic" in2="effect1_dropShadow_535_1411" result="shape"/>
</filter>
</defs>
</svg>
